# xmcd
#
# Track frame offsets:
#	182
#	14825
#	26757
#	42417
#	57025
#	70537
#	83052
#	96100
#	110637
#	124927
#	140202
#	154742
#	168837
#	182405
#	197320
#	211297
#	227807
#	243315
#	257120
#
# Disc length: 3628 seconds
#
# Revision: 1
# Processed by: cddbd v1.4PL0 Copyright (c) Steve Scherf et al.
# Submitted via: audiograbber 1.80
#
DISCID=040e2a13
DTITLE=Bessie Smith - Audio Archive Collectors Edition
DYEAR=1900
DGENRE=
TTITLE0=I'm Down In The Dumps
TTITLE1=Take Me For A Buggy Ride
TTITLE2=Do Your Duty
TTITLE3=He's Got Me Going
TTITLE4=Kitchen Man
TTITLE5=You've Got To Give Me Some
TTITLE6=I Used To Be Your Sweet Mama
TTITLE7=Devil's Gonna Get You
TTITLE8=Thinking Blues
TTITLE9=Send Me To The 'Lectric Chair
TTITLE10=Trombone Cholly
TTITLE11=Cake Walkin' Babies
TTITLE12=The Yellow Dog Blues
TTITLE13=Soft Pedal Blues
TTITLE14=Dixie Flyer Blues
TTITLE15=Nashville Woman Blues
TTITLE16=Careless Love Blues
TTITLE17=J.C. Holmes Blues
TTITLE18=I Ain't Gonna Play A Second Fiddle
EXTD=
EXTT0=
EXTT1=
EXTT2=
EXTT3=
EXTT4=
EXTT5=
EXTT6=
EXTT7=
EXTT8=
EXTT9=
EXTT10=
EXTT11=
EXTT12=
EXTT13=
EXTT14=
EXTT15=
EXTT16=
EXTT17=
EXTT18=
PLAYORDER=
